<svg width="1920" height="1080" viewBox="0 0 1920 1080" fill="none" xmlns="http://www.w3.org/2000/svg">
<g clip-path="url(#clip0_120_24)">
<rect width="3200" height="1200" fill="#F7F7F7"/>
<rect width="1891" height="585" transform="translate(0 238)" fill="#F7F7F7"/>
<path d="M349.379 570.878L349.323 570.892L349.267 570.905C291.796 584.204 233.625 553.838 218.536 500.134C202.961 444.699 239.498 386.599 298.756 369.949L419.849 335.925L425.144 334.438L426.632 339.733L440.743 389.956L442.231 395.251L436.936 396.739L399.991 407.119L315.843 430.762C288.784 438.365 273.55 462.404 279.35 483.047C285.149 503.686 310.676 516.277 337.734 508.675L374.493 498.346L374.62 498.311L374.748 498.281L417.584 488.429L418.824 493.787L417.591 488.427L417.588 488.428C475.062 475.125 533.227 505.498 548.315 559.2C563.891 614.635 527.354 672.735 468.095 689.385L352.415 721.888L347.12 723.375L345.632 718.08L331.521 667.857L330.034 662.562L335.329 661.074L451.009 628.571C478.071 620.968 493.302 596.93 487.501 576.287C481.701 555.643 456.18 543.055 429.118 550.659L429.05 550.678L428.982 550.696L349.379 570.878Z" fill="url(#paint0_linear_120_24)" stroke="#BF13FB" stroke-width="11"/>
<rect x="343.339" y="670.102" width="21.7369" height="21.7369" transform="rotate(-15.6937 343.339 670.102)" fill="#F7F7F7"/>
<rect x="314.151" y="722.101" width="21.7369" height="21.7369" transform="rotate(-15.6937 314.151 722.101)" fill="#F7F7F7"/>
<rect x="328.745" y="696.101" width="21.7369" height="21.7369" transform="rotate(-15.6937 328.745 696.101)" fill="#F7F7F7"/>
<rect x="307.18" y="702.161" width="21.7369" height="21.7369" transform="rotate(-15.6937 307.18 702.161)" fill="#BF13FB"/>
<rect x="292.585" y="728.16" width="21.7369" height="21.7369" transform="rotate(-15.6937 292.585 728.16)" fill="#BF13FB"/>
<rect x="266.586" y="713.566" width="21.7369" height="21.7369" transform="rotate(-15.6937 266.586 713.566)" fill="#BF13FB"/>
<rect x="271.986" y="679.2" width="21.7369" height="21.7369" transform="rotate(-15.6937 271.986 679.2)" fill="#2C2C2C"/>
<rect x="430.582" y="381.431" width="18.4475" height="18.4475" transform="rotate(164.306 430.582 381.431)" fill="#F7F7F7"/>
<rect x="457.39" y="335.575" width="19.7651" height="19.7651" transform="rotate(164.306 457.39 335.575)" fill="#F7F7F7"/>
<rect x="443.708" y="359.949" width="18.4475" height="19.7651" transform="rotate(164.306 443.708 359.949)" fill="#F7F7F7"/>
<rect x="464.005" y="354.247" width="19.7651" height="19.7651" transform="rotate(164.306 464.005 354.247)" fill="#A522E2"/>
<rect x="476.418" y="330.228" width="19.7651" height="19.7651" transform="rotate(164.306 476.418 330.228)" fill="#A522E2"/>
<rect x="499.524" y="344.267" width="18.4475" height="19.7651" transform="rotate(164.306 499.524 344.267)" fill="#A522E2"/>
<rect x="483.734" y="395.239" width="21.0828" height="19.7651" transform="rotate(164.306 483.734 395.239)" fill="#2C2C2C"/>
<path d="M703.741 605.435C692.378 605.435 681.489 603.947 671.074 600.971C660.658 597.86 652.272 593.869 645.914 589L657.074 564.246C663.161 568.575 670.33 572.159 678.581 575C686.968 577.705 695.422 579.058 703.944 579.058C710.436 579.058 715.644 578.449 719.567 577.232C723.625 575.879 726.601 574.053 728.494 571.753C730.388 569.454 731.335 566.816 731.335 563.84C731.335 560.053 729.847 557.077 726.871 554.913C723.895 552.613 719.973 550.787 715.103 549.434C710.233 547.946 704.823 546.594 698.871 545.376C693.055 544.024 687.17 542.401 681.219 540.507C675.402 538.613 670.059 536.178 665.19 533.202C660.32 530.227 656.33 526.304 653.219 521.434C650.243 516.565 648.755 510.342 648.755 502.767C648.755 494.651 650.919 487.279 655.248 480.651C659.711 473.888 666.339 468.545 675.132 464.622C684.059 460.564 695.219 458.535 708.61 458.535C717.538 458.535 726.33 459.617 734.987 461.782C743.644 463.811 751.287 466.922 757.915 471.115L747.77 496.072C741.142 492.284 734.514 489.511 727.886 487.753C721.258 485.859 714.765 484.912 708.407 484.912C702.05 484.912 696.842 485.656 692.784 487.144C688.726 488.632 685.818 490.593 684.059 493.028C682.301 495.328 681.422 498.033 681.422 501.144C681.422 504.796 682.91 507.772 685.885 510.072C688.861 512.236 692.784 513.995 697.654 515.347C702.523 516.7 707.866 518.053 713.683 519.405C719.634 520.758 725.519 522.313 731.335 524.072C737.287 525.83 742.697 528.198 747.567 531.173C752.437 534.149 756.359 538.072 759.335 542.942C762.446 547.811 764.002 553.966 764.002 561.405C764.002 569.386 761.77 576.691 757.306 583.319C752.842 589.947 746.147 595.29 737.219 599.348C728.427 603.406 717.267 605.435 703.741 605.435ZM841.854 605.232C829.409 605.232 818.25 602.662 808.375 597.522C798.636 592.246 790.926 585.077 785.245 576.014C779.563 566.816 776.723 556.401 776.723 544.768C776.723 533 779.563 522.584 785.245 513.521C790.926 504.323 798.636 497.154 808.375 492.014C818.25 486.738 829.409 484.101 841.854 484.101C852.81 484.101 862.414 485.791 870.665 489.173C879.052 492.419 886.221 497.83 892.173 505.405L871.477 524.275C867.554 519.54 863.226 516.024 858.491 513.724C853.757 511.424 848.617 510.275 843.071 510.275C836.443 510.275 830.559 511.763 825.419 514.738C820.279 517.579 816.221 521.569 813.245 526.71C810.404 531.85 808.984 537.869 808.984 544.768C808.984 551.531 810.404 557.483 813.245 562.623C816.221 567.763 820.279 571.821 825.419 574.797C830.559 577.637 836.443 579.058 843.071 579.058C848.617 579.058 853.757 577.908 858.491 575.608C863.226 573.309 867.554 569.792 871.477 565.058L892.173 583.927C886.221 591.367 879.052 596.778 870.665 600.159C862.414 603.541 852.81 605.232 841.854 605.232ZM912.255 603V486.332H944.313V603H912.255ZM1003.67 532.188H1060.08V555.521H1003.67V532.188ZM1006.92 578.449H1069.21V603H975.265V486.332H1066.98V510.883H1006.92V578.449ZM1092.57 603V486.332H1118.94L1184.68 565.261H1172.71V486.332H1204.16V603H1177.78L1111.84 524.072H1124.02V603H1092.57ZM1257.34 603V511.289H1220.62V486.332H1326.13V511.289H1289.4V603H1257.34ZM1371.03 532.188H1427.44V555.521H1371.03V532.188ZM1374.28 578.449H1436.57V603H1342.63V486.332H1434.34V510.883H1374.28V578.449ZM1516.54 605.232C1504.09 605.232 1492.93 602.662 1483.06 597.522C1473.32 592.246 1465.61 585.077 1459.93 576.014C1454.25 566.816 1451.4 556.401 1451.4 544.768C1451.4 533 1454.25 522.584 1459.93 513.521C1465.61 504.323 1473.32 497.154 1483.06 492.014C1492.93 486.738 1504.09 484.101 1516.54 484.101C1527.49 484.101 1537.1 485.791 1545.35 489.173C1553.73 492.419 1560.9 497.83 1566.86 505.405L1546.16 524.275C1542.24 519.54 1537.91 516.024 1533.17 513.724C1528.44 511.424 1523.3 510.275 1517.75 510.275C1511.13 510.275 1505.24 511.763 1500.1 514.738C1494.96 517.579 1490.9 521.569 1487.93 526.71C1485.09 531.85 1483.67 537.869 1483.67 544.768C1483.67 551.531 1485.09 557.483 1487.93 562.623C1490.9 567.763 1494.96 571.821 1500.1 574.797C1505.24 577.637 1511.13 579.058 1517.75 579.058C1523.3 579.058 1528.44 577.908 1533.17 575.608C1537.91 573.309 1542.24 569.792 1546.16 565.058L1566.86 583.927C1560.9 591.367 1553.73 596.778 1545.35 600.159C1537.1 603.541 1527.49 605.232 1516.54 605.232ZM1586.94 603V486.332H1619V530.97H1666.47V486.332H1698.53V603H1666.47V556.739H1619V603H1586.94Z" fill="black"/>
<path d="M1161.19 250.787C1155.32 254.499 1149.95 251.533 1148.97 244.565C1148.61 242.447 1148.82 240.176 1149.56 238.079C1150.3 235.983 1151.53 234.17 1153.09 232.902C1171.18 219.308 1172.89 210.953 1170.59 194.656C1169.91 189.847 1168.39 182.093 1167.68 177.054C1165.04 158.338 1171.07 147.032 1183.52 137.345C1169.8 136.661 1161.04 130.035 1158.4 111.348C1157.69 106.309 1156.97 98.2565 1156.3 93.4768C1153.99 77.1799 1150.17 70.6486 1130.06 69.8755C1128.3 69.7068 1126.69 68.8416 1125.45 67.4039C1124.21 65.9663 1123.4 64.0301 1123.16 61.8727C1122.18 54.9336 1126.26 48.7722 1132.6 48.4286C1164.27 46.3572 1174.44 58.5439 1177.72 81.7799C1178.23 85.379 1179.18 95.1017 1179.76 99.1903C1182.27 116.956 1188.48 122.897 1201.97 119.136C1208.35 117.512 1212.73 120.811 1213.64 127.289C1214.56 133.767 1211.47 139.568 1205.22 142.171C1191.91 147.141 1187.9 156.777 1190.37 174.283C1190.94 178.343 1192.7 187.796 1193.21 191.424C1196.52 214.833 1190.54 232.303 1161.19 250.787Z" fill="#EBEBEB"/>
<path d="M1094.43 61.2076C1100.29 57.4658 1105.65 60.4681 1106.63 67.4072C1106.99 69.5602 1106.77 71.8729 1105.99 73.9944C1105.21 76.1159 1103.92 77.9305 1102.32 79.1628C1084.41 92.6672 1082.72 101.043 1085.02 117.34C1085.7 122.12 1087.22 129.903 1087.93 134.942C1090.57 153.629 1084.54 164.965 1072.09 174.653C1085.79 175.344 1094.57 181.932 1097.21 200.648C1097.92 205.687 1098.64 213.711 1099.32 218.519C1101.62 234.816 1105.44 241.318 1125.35 242.19C1127.14 242.278 1128.8 243.099 1130.08 244.527C1131.36 245.954 1132.19 247.911 1132.44 250.1C1133.42 257.068 1129.33 263.201 1123.02 263.566C1091.33 265.64 1081.14 253.462 1077.82 229.967C1077.31 226.368 1076.36 216.645 1075.78 212.557C1073.31 195.05 1066.87 188.914 1053.42 192.906C1047.25 194.489 1042.87 191.19 1041.95 184.683C1041.03 178.176 1044.13 172.404 1050.16 169.872C1063.45 164.67 1067.69 155.229 1065.18 137.464C1064.6 133.404 1062.85 123.951 1062.33 120.323C1059.06 97.1443 1065.05 79.5789 1094.43 61.2076Z" fill="#EBEBEB"/>
<path d="M1369.36 853.667C1370.27 854.945 1370.95 856.392 1371.38 857.925C1371.81 859.458 1371.97 861.047 1371.85 862.599C1371.73 864.152 1371.34 865.638 1370.7 866.971C1370.06 868.305 1369.18 869.459 1368.1 870.369C1365.98 872.113 1363.27 872.823 1360.54 872.355C1357.7 871.831 1355.04 870.123 1353.12 867.576L1310.34 805.974C1309.82 805.878 1309.71 805.276 1309.59 804.673C1309.45 804.501 1309.28 804.35 1309.11 804.225C1308.91 803.714 1308.79 803.179 1308.74 802.638C1308.62 802.555 1308.51 802.438 1308.43 802.298C1308.34 802.157 1308.3 801.999 1308.28 801.837C1308.31 801.441 1308.36 800.868 1308.05 800.633C1307.75 800.397 1307.75 799.817 1307.77 799.641L1307.86 798.363C1307.89 797.966 1307.91 797.79 1307.95 797.217C1307.99 796.644 1308 796.512 1308.02 796.292L1308.11 795.014C1308.14 794.661 1308.51 794.507 1308.53 794.331C1308.54 794.154 1308.6 793.405 1308.96 792.891C1309.32 792.377 1308.96 792.891 1308.98 792.539C1309.01 792.186 1309.59 791.357 1309.94 791.019C1309.94 790.969 1309.95 790.921 1309.98 790.878C1310 790.836 1310.03 790.8 1310.06 790.773C1310.1 790.745 1310.14 790.728 1310.19 790.721C1310.23 790.714 1310.28 790.718 1310.32 790.733C1310.58 790.242 1310.95 789.849 1311.41 789.595L1362.14 745.431C1364.33 743.665 1367.1 742.971 1369.88 743.491C1372.67 744.01 1375.26 745.705 1377.12 748.224C1378.03 749.502 1378.72 750.949 1379.14 752.482C1379.57 754.015 1379.73 755.604 1379.62 757.157C1379.5 758.709 1379.11 760.195 1378.46 761.528C1377.82 762.862 1376.94 764.017 1375.87 764.926L1333.17 801.919L1369.36 853.667Z" fill="#EBEBEB"/>
<path d="M1411.29 867.517L1460.05 766.903C1460.64 765.745 1461.43 764.749 1462.39 763.973C1463.35 763.196 1464.45 762.655 1465.63 762.38C1466.81 762.106 1468.04 762.103 1469.26 762.373C1470.49 762.642 1471.67 763.179 1472.74 763.951C1474.85 765.424 1476.42 767.735 1477.11 770.377C1477.8 773.02 1477.55 775.776 1476.41 778.042L1427.6 878.647C1426.74 880.343 1425.43 881.675 1423.84 882.481C1422.25 883.288 1420.44 883.533 1418.65 883.189C1417.5 882.983 1416.39 882.517 1415.38 881.82C1414.28 881.133 1413.29 880.211 1412.48 879.109C1411.67 878.007 1411.05 876.748 1410.67 875.41C1410.29 874.072 1410.14 872.682 1410.25 871.325C1410.36 869.968 1410.71 868.672 1411.29 867.517Z" fill="#EBEBEB"/>
<path d="M1552.71 849.646C1552.35 850.079 1551.93 850.452 1551.47 850.754L1500.73 894.919C1498.56 896.695 1495.78 897.396 1492.99 896.876C1490.2 896.355 1487.61 894.654 1485.75 892.126C1484.85 890.847 1484.16 889.4 1483.73 887.867C1483.3 886.334 1483.14 884.745 1483.26 883.193C1483.38 881.64 1483.77 880.154 1484.41 878.821C1485.05 877.488 1485.94 876.333 1487.01 875.423L1529.87 838.416L1493.67 786.712C1492.77 785.434 1492.08 783.987 1491.65 782.454C1491.23 780.921 1491.07 779.332 1491.18 777.78C1491.3 776.227 1491.69 774.741 1492.33 773.408C1492.98 772.074 1493.86 770.919 1494.93 770.01C1497.11 768.245 1499.88 767.55 1502.67 768.07C1505.46 768.59 1508.05 770.284 1509.91 772.803L1552.7 834.405C1553.1 834.869 1553.45 835.385 1553.74 835.941L1553.72 836.293C1553.98 837.101 1554.27 837.513 1554.42 838.123C1554.58 838.732 1554.42 838.123 1554.39 838.475C1554.46 839.075 1554.59 839.67 1554.78 840.246C1554.77 840.466 1554.77 840.466 1554.74 840.818L1554.64 842.096C1554.64 842.096 1554.59 842.846 1554.57 843.022C1554.56 843.198 1554.52 843.771 1554.5 843.991L1554.39 845.446C1554.39 845.446 1554.39 845.446 1554.36 845.842C1554.1 846.341 1553.89 846.869 1553.72 847.421C1553.72 847.421 1553.72 847.421 1553.68 847.95C1553.64 848.479 1553.09 848.956 1552.71 849.646Z" fill="#EBEBEB"/>
<path d="M1806.68 864.606C1793.44 864.606 1766.68 854.344 1771.17 845.705C1775.67 837.065 1789.48 848.168 1790.05 848.5C1789.66 847.855 1780.72 830.635 1788.67 827.644C1796.61 824.653 1804.68 832.961 1806.68 842.519C1808.66 832.961 1816.58 824.575 1824.69 827.644C1832.79 830.713 1823.7 847.855 1823.32 848.5C1823.89 848.168 1837.76 837.28 1842.18 845.705C1846.6 854.129 1819.91 864.606 1806.68 864.606Z" fill="#455A64"/>
<path d="M1873.5 935.013C1872.87 942.214 1871.74 949.364 1870.14 956.416C1866.99 970.451 1861.81 984.055 1854.42 993.164C1823.64 1005.05 1789.44 1005.05 1758.65 993.164C1742.8 973.715 1737.24 933.684 1739.47 913.121C1743.56 875.982 1766.06 861.733 1785.6 856.651C1792.43 854.898 1799.46 854.011 1806.52 854.012C1825.68 854.012 1867.94 860.834 1873.58 913.14C1874.25 920.418 1874.22 927.74 1873.5 935.013Z" fill="#C41CFF"/>
<path d="M1807.93 853.992C1808.46 866.326 1808.78 878.68 1809 891.014C1809.21 903.347 1809.29 915.72 1809.35 928.152C1809.41 940.584 1809.21 952.839 1808.86 965.193C1808.5 977.546 1808.22 989.939 1806.24 1002.16L1806.72 997.542L1806.97 992.929C1807.19 989.86 1807.19 986.752 1807.29 983.684C1807.45 977.507 1807.53 971.35 1807.55 965.173C1807.55 952.839 1807.73 940.486 1807.67 928.152V891.111C1807.75 878.68 1807.77 866.346 1807.93 853.992Z" fill="white"/>
<path d="M1799.8 854.247C1797.94 860.124 1796.44 866.111 1795.33 872.171C1794.08 878.191 1793.17 884.29 1792.37 890.388C1790.86 902.604 1790 914.89 1789.8 927.194V936.42C1789.8 939.489 1789.92 942.578 1789.96 945.646C1789.96 951.804 1790.51 957.941 1790.81 964.079C1790.93 967.167 1791.24 970.236 1791.52 973.285L1792.35 982.492L1794.47 1000.87C1793.44 994.786 1792.49 988.688 1791.52 982.589L1790.45 973.402C1790.09 970.334 1789.72 967.265 1789.52 964.176C1789.02 958.019 1788.55 951.862 1788.43 945.685C1788.43 942.597 1788.15 939.509 1788.19 936.42V927.155C1788.46 914.801 1789.45 902.473 1791.16 890.232C1792.78 877.976 1795.68 865.917 1799.8 854.247Z" fill="white"/>
<path d="M1789.02 855.771C1785.2 860.804 1782.01 866.279 1779.53 872.073C1778.92 873.52 1778.23 874.947 1777.65 876.413L1776.07 880.85L1775.26 883.058C1775.02 883.801 1774.82 884.564 1774.6 885.326L1773.33 889.841C1770.28 902.025 1768.82 914.547 1769.01 927.097L1769.21 936.499L1770.14 945.861L1770.6 950.533C1770.84 952.097 1771.15 953.641 1771.41 955.185L1773.02 964.47C1773.27 966.025 1773.6 967.565 1774.03 969.083L1775.16 973.657L1777.41 982.824L1783.08 1000.87C1780.88 995.001 1778.76 989.001 1776.62 983.058L1774.13 973.911L1772.88 969.337C1772.41 967.822 1772.04 966.281 1771.75 964.724L1769.97 955.42C1769.69 953.856 1769.35 952.312 1769.11 950.748L1768.62 946.037L1767.61 936.596L1767.31 927.097C1767.19 914.413 1768.8 901.771 1772.09 889.509L1773.49 884.974C1773.73 884.212 1773.95 883.449 1774.19 882.707L1775.06 880.478L1776.78 876.061C1777.4 874.595 1778.11 873.168 1778.76 871.741C1781.47 866.002 1784.92 860.633 1789.02 855.771Z" fill="white"/>
<path d="M1780.96 857.902C1776.01 862.026 1771.66 866.801 1768.02 872.092C1764.31 877.306 1761.22 882.92 1758.79 888.824C1753.93 900.614 1751.45 913.233 1751.52 925.963C1751.4 929.149 1751.66 932.315 1751.78 935.501C1751.9 938.687 1752.27 941.834 1752.85 944.981L1753.58 949.692L1754.55 954.364C1754.87 955.927 1755.21 957.491 1755.64 959.035L1756.81 963.668C1757.62 966.756 1758.65 969.786 1759.56 972.835L1762.81 981.866L1766.42 990.759L1770.38 999.536C1764.23 988.226 1759.26 976.326 1755.56 964.02C1754.73 960.912 1753.72 957.843 1753.12 954.676L1752.11 949.966L1751.32 945.196C1750.73 942.03 1750.55 938.805 1750.15 935.619C1749.76 932.433 1749.74 929.188 1749.84 925.963C1749.83 913.02 1752.47 900.209 1757.6 888.296C1760.19 882.377 1763.47 876.775 1767.37 871.604C1769.31 869.022 1771.41 866.567 1773.67 864.254C1775.91 861.928 1778.35 859.803 1780.96 857.902Z" fill="white"/>
<path d="M1815.55 854.325C1819.7 865.993 1822.62 878.052 1824.27 890.31C1825.98 902.557 1826.98 914.892 1827.24 927.253V936.518C1827.24 939.606 1827.08 942.695 1827 945.783C1826.89 951.96 1826.41 958.117 1825.91 964.274C1825.72 967.343 1825.34 970.412 1824.98 973.481L1823.91 982.687C1823 988.785 1821.93 994.884 1820.96 1000.96L1823.08 982.589L1823.91 973.383C1824.19 970.314 1824.51 967.245 1824.63 964.176C1824.92 958.019 1825.42 951.882 1825.48 945.724C1825.48 942.656 1825.7 939.587 1825.64 936.499V927.273C1825.43 914.974 1824.57 902.695 1823.06 890.486C1822.27 884.388 1821.36 878.289 1820.11 872.249C1818.97 866.188 1817.44 860.202 1815.55 854.325Z" fill="white"/>
<path d="M1826.41 855.869C1830.49 860.727 1833.9 866.089 1836.57 871.819C1837.25 873.266 1837.96 874.673 1838.56 876.139L1840.28 880.576L1841.13 882.785C1841.39 883.547 1841.61 884.31 1841.84 885.052L1843.25 889.607C1846.54 901.868 1848.14 914.511 1848.01 927.195L1847.73 936.675L1846.72 946.116L1846.22 950.826C1845.96 952.39 1845.65 953.954 1845.37 955.498L1843.59 964.822C1843.3 966.373 1842.92 967.906 1842.46 969.415L1841.21 973.989L1838.71 983.137C1836.57 989.001 1834.45 995.041 1832.25 1000.96L1837.92 982.902L1840.18 973.735L1841.31 969.161C1841.73 967.641 1842.06 966.102 1842.32 964.548L1843.92 955.263C1844.18 953.719 1844.5 952.175 1844.74 950.631L1845.19 945.94L1846.12 936.577L1846.32 927.175C1846.51 914.631 1845.06 902.116 1842 889.939L1840.73 885.404C1840.52 884.642 1840.32 883.88 1840.08 883.137L1839.27 880.928L1837.68 876.491C1837.11 875.025 1836.42 873.618 1835.7 872.171C1833.29 866.382 1830.17 860.907 1826.41 855.869Z" fill="white"/>
<path d="M1834.37 858C1837.01 859.889 1839.45 862.016 1841.69 864.352C1843.94 866.669 1846.04 869.124 1847.99 871.702C1851.88 876.875 1855.16 882.477 1857.75 888.394C1862.88 900.307 1865.52 913.118 1865.52 926.06C1865.52 929.286 1865.34 932.511 1865.2 935.716C1865.06 938.922 1864.63 942.147 1864.03 945.314L1863.24 950.064L1862.23 954.794C1861.64 957.941 1860.63 961.01 1859.79 964.118C1856.09 976.429 1851.12 988.335 1844.97 999.653L1848.94 990.877L1852.54 981.964L1855.79 972.874C1856.7 969.806 1857.77 966.776 1858.55 963.688L1859.71 959.055C1860.15 957.511 1860.49 955.967 1860.8 954.403L1861.77 949.731L1862.51 945.001C1863.08 941.874 1863.22 938.688 1863.58 935.521C1863.93 932.354 1863.95 929.168 1863.84 926.002C1863.89 913.273 1861.42 900.658 1856.56 888.863C1854.13 882.961 1851.04 877.348 1847.33 872.132C1843.69 866.86 1839.33 862.105 1834.37 858Z" fill="white"/>
<path d="M1803.47 898.129C1805.48 900.76 1807.32 903.508 1809 906.358H1807.98C1808.92 904.696 1809.97 903.054 1810.94 901.451C1811.45 900.63 1811.99 899.829 1812.54 899.047C1813.1 898.265 1813.63 897.464 1814.23 896.702C1813.87 897.601 1813.45 898.461 1813.06 899.34C1812.66 900.22 1812.22 901.061 1811.77 901.921C1810.9 903.602 1809.97 905.283 1809 906.925L1808.48 907.804L1807.98 906.944C1806.31 904.093 1804.8 901.149 1803.47 898.129Z" fill="white"/>
<path d="M1808.06 893.848C1808.98 898.056 1809.12 902.393 1808.48 906.651C1807.56 902.443 1807.42 898.106 1808.06 893.848Z" fill="white"/>
<path d="M1846.82 854.383C1847.04 857.669 1847.07 860.965 1846.92 864.254L1846.06 863.727C1847.77 862.827 1849.51 861.987 1851.25 861.185C1852.15 860.775 1853.02 860.384 1853.93 860.013C1854.84 859.641 1855.71 859.289 1856.64 858.977C1855.85 859.524 1855.02 860.032 1854.21 860.56L1851.71 862.026C1850.03 862.964 1848.32 863.883 1846.6 864.743L1845.69 865.193V864.196C1845.87 860.906 1846.24 857.629 1846.82 854.383Z" fill="white"/>
<path d="M1853.04 853.27C1852.29 855.284 1851.34 857.217 1850.18 859.036C1849.09 860.893 1847.8 862.636 1846.34 864.235C1847.87 860.204 1850.14 856.486 1853.04 853.27Z" fill="white"/>
<path d="M1836.44 883.918C1838.12 886.769 1839.63 889.712 1840.97 892.734L1839.96 892.616C1841.09 891.072 1842.28 889.567 1843.49 888.082C1844.08 887.339 1844.72 886.596 1845.33 885.873C1845.94 885.15 1846.62 884.426 1847.31 883.742C1846.84 884.602 1846.32 885.404 1845.83 886.225C1845.33 887.046 1844.8 887.847 1844.26 888.629C1843.17 890.212 1842.06 891.776 1840.89 893.3L1840.3 894.102L1839.9 893.203C1838.56 890.177 1837.41 887.077 1836.44 883.918Z" fill="white"/>
<path d="M1841.51 880.205C1841.94 884.488 1841.58 888.814 1840.44 892.968C1840.21 890.831 1840.21 888.675 1840.44 886.538C1840.58 884.397 1840.94 882.275 1841.51 880.205Z" fill="white"/>
<path d="M1817.63 981.495C1819.64 984.136 1821.48 986.89 1823.16 989.743H1822.15C1823.08 988.082 1824.13 986.44 1825.1 984.817C1825.62 984.009 1826.15 983.208 1826.71 982.413C1827.26 981.631 1827.8 980.849 1828.39 980.087C1828.03 980.986 1827.62 981.846 1827.22 982.726C1826.83 983.606 1826.39 984.446 1825.93 985.287C1825.06 986.987 1824.13 988.668 1823.16 990.31L1822.65 991.17L1822.15 990.31C1820.47 987.461 1818.96 984.517 1817.63 981.495Z" fill="white"/>
<path d="M1822.23 977.214C1823.15 981.422 1823.29 985.759 1822.65 990.017C1821.73 985.808 1821.59 981.472 1822.23 977.214Z" fill="white"/>
<path d="M1773.59 868.946C1774.74 872.041 1775.7 875.2 1776.46 878.406L1775.49 878.113C1776.88 876.784 1778.33 875.513 1779.77 874.204L1781.99 872.366C1782.76 871.78 1783.52 871.174 1784.31 870.627C1783.71 871.37 1783.06 872.073 1782.33 872.796C1781.59 873.52 1781 874.204 1780.35 874.908C1779 876.276 1777.63 877.605 1776.23 878.915L1775.47 879.599L1775.25 878.621C1774.51 875.43 1773.96 872.2 1773.59 868.946Z" fill="white"/>
<path d="M1779.24 866.15C1778.92 870.445 1777.78 874.642 1775.89 878.523C1776.24 874.234 1777.38 870.043 1779.24 866.15Z" fill="white"/>
<path d="M1876.44 904.462C1876.28 907.737 1875.93 911.001 1875.39 914.235L1874.61 913.609C1876.42 912.906 1878.24 912.28 1880.08 911.655L1882.85 910.795C1883.79 910.56 1884.72 910.267 1885.67 910.072C1884.82 910.541 1883.92 910.932 1883.05 911.362C1882.18 911.792 1881.31 912.163 1880.42 912.534C1878.63 913.297 1876.83 914 1875.03 914.665L1874.08 914.997L1874.22 914.235C1874.76 910.936 1875.5 907.672 1876.44 904.462Z" fill="white"/>
<path d="M1882.76 904.11C1881.78 906.027 1880.6 907.841 1879.25 909.524C1877.94 911.246 1876.46 912.825 1874.81 914.235C1876.81 910.417 1879.5 906.987 1882.74 904.11H1882.76Z" fill="white"/>
<path d="M1784.39 940.838C1786.43 943.446 1788.31 946.175 1790.01 949.008H1789.02C1789.96 947.327 1791.01 945.685 1791.94 944.063C1792.45 943.242 1792.97 942.441 1793.5 941.639C1794.04 940.838 1794.57 940.056 1795.17 939.294C1794.83 940.193 1794.41 941.053 1794.04 941.932C1793.66 942.812 1793.2 943.653 1792.77 944.513C1791.92 946.213 1791.01 947.914 1790.05 949.575L1789.54 950.435L1789.04 949.575C1787.32 946.755 1785.77 943.837 1784.39 940.838Z" fill="white"/>
<path d="M1789.02 936.518C1789.99 940.71 1790.19 945.041 1789.6 949.301C1788.63 945.109 1788.44 940.778 1789.02 936.518Z" fill="white"/>
<path d="M1749.82 962.671C1752.69 964.352 1755.47 966.192 1758.14 968.183L1757.21 968.574C1757.42 966.62 1757.7 964.782 1758.02 962.906C1758.18 961.968 1758.36 961.029 1758.55 960.091C1758.77 959.153 1758.95 958.136 1759.21 957.276C1759.21 958.254 1759.21 959.231 1759.21 960.169C1759.21 961.108 1759.21 962.124 1759.03 963.023C1758.87 964.978 1758.67 966.815 1758.41 968.711L1758.28 969.708L1757.48 969.102C1754.8 967.11 1752.24 964.963 1749.82 962.671Z" fill="white"/>
<path d="M1752.39 956.983C1754.89 960.539 1756.72 964.513 1757.78 968.711C1756.51 966.96 1755.42 965.079 1754.55 963.101C1753.63 961.138 1752.9 959.089 1752.39 956.983Z" fill="white"/>
<path d="M1741.24 875.982C1744.38 877.103 1747.46 878.408 1750.45 879.891L1749.62 880.458C1749.48 878.504 1749.38 876.647 1749.34 874.731C1749.34 873.773 1749.34 872.776 1749.34 871.877C1749.34 870.978 1749.34 869.923 1749.46 869.004C1749.66 869.942 1749.78 870.959 1749.95 871.838C1750.13 872.718 1750.21 873.793 1750.31 874.672C1750.53 876.627 1750.69 878.464 1750.79 880.38V881.377L1749.9 880.927C1746.91 879.45 1744.02 877.799 1741.24 875.982Z" fill="white"/>
<path d="M1742.68 869.904C1744.26 871.392 1745.68 873.029 1746.92 874.79C1748.2 876.534 1749.3 878.401 1750.19 880.361C1748.62 878.872 1747.2 877.236 1745.95 875.474C1744.68 873.73 1743.58 871.864 1742.68 869.904Z" fill="white"/>
<path d="M1859.28 938.629C1861.02 941.442 1862.59 944.353 1863.99 947.347H1862.98C1864.09 945.764 1865.22 944.239 1866.41 942.714C1867 941.972 1867.6 941.209 1868.21 940.486C1868.83 939.763 1869.46 939.02 1870.19 938.316C1869.76 939.176 1869.24 939.997 1868.77 940.818C1868.29 941.639 1867.78 942.46 1867.24 943.262C1866.21 944.864 1865.12 946.448 1863.99 948.011L1863.4 948.813L1863 947.914C1861.57 944.895 1860.33 941.795 1859.28 938.629Z" fill="white"/>
<path d="M1864.31 934.817C1864.82 939.092 1864.55 943.423 1863.5 947.601C1863.21 945.469 1863.15 943.314 1863.32 941.17C1863.43 939.025 1863.77 936.897 1864.31 934.817Z" fill="white"/>
<path d="M1750.25 994.083H1863.99L1852.54 1087.91H1761.7L1750.25 994.083Z" fill="#455A64"/>
<path d="M1750.25 994.083L1752.83 1015.25L1862.03 1010.07L1863.99 994.083H1750.25Z" fill="#263238"/>
<path d="M1871.13 982.237H1743.1V999.008H1871.13V982.237Z" fill="#455A64"/>
<path d="M533.878 970.428L581.112 968.943L604.376 968.36C612.119 968.095 619.791 968.36 627.499 968.042L625.943 970.428L625.731 911.084L627.499 913.735L580.582 913.417C564.99 913.417 549.399 912.781 533.771 912.516L534.761 911.084C534.761 920.789 534.443 930.547 534.266 940.464L533.878 970.428ZM533.878 970.428L533.382 941.048C533.382 931.183 532.994 921.16 532.923 911.084V909.652H533.878C549.505 909.387 565.096 908.803 580.688 908.75L627.499 908.432H629.267V911.084V970.428V972.815H627.676C619.791 972.815 611.872 972.815 604.023 972.496L580.476 971.913L533.878 970.428Z" fill="#EBEBEB"/>
<path d="M586.098 1045.26L633.333 1043.77L656.596 1043.19C664.339 1042.92 672.011 1043.19 679.719 1042.87L678.163 1045.26L677.987 985.913L679.719 988.565L632.908 988.193C617.316 988.193 601.725 987.557 586.098 987.292L587.088 985.86C587.088 995.565 586.769 1005.32 586.628 1015.24L586.098 1045.26ZM586.098 1045.26L585.603 1015.88C585.603 1006.01 585.214 995.989 585.143 985.913V984.481H586.098C601.725 984.216 617.316 983.632 632.908 983.579L679.719 983.261H681.522V985.913L681.345 1045.26V1047.64H679.578C671.693 1047.64 663.809 1047.64 655.925 1047.38L632.378 1046.79L586.098 1045.26Z" fill="#EBEBEB"/>
<path d="M481.657 1045.26H575.279V985.913H481.657V1045.26Z" fill="#EBEBEB"/>
<path d="M212.178 569.336H118.557V628.681H212.178V569.336Z" fill="#EBEBEB"/>
<path d="M159.852 494.508L112.617 495.993L89.3532 496.576C81.6457 496.841 73.9382 496.576 66.2307 496.841L67.7863 494.508L67.9984 553.852L66.2307 551.2L113.041 551.518C128.633 551.518 144.26 552.102 159.852 552.42L158.897 553.852C158.897 544.147 159.18 534.389 159.357 524.471L159.852 494.508ZM159.852 494.508L160.347 523.888C160.524 533.752 160.736 543.776 160.807 553.852V555.284H159.852C144.26 555.549 128.633 556.132 113.041 556.185L66.2307 556.504H64.4629V553.852L64.6397 494.508V492.121H66.1954C74.0797 492.121 81.9993 492.121 89.8482 492.439L113.395 493.023L159.852 494.508Z" fill="#EBEBEB"/>
<path d="M181.298 224.89L197.662 228L200.006 219.493C205.601 219.355 211.121 218.136 216.279 215.901L221.814 222.713L235.531 213.008L231.326 205.233C235.205 201.086 238.284 196.221 240.4 190.894L248.975 191.672L252 174.861L243.712 172.435C243.589 166.68 242.404 161.001 240.219 155.701L246.843 150.01L237.406 135.92L229.844 140.243C225.805 136.264 221.075 133.098 215.9 130.912L216.657 122.11L200.293 119L197.949 127.507C192.354 127.647 186.834 128.865 181.676 131.099L176.186 124.287L162.469 133.992L166.674 141.767C162.795 145.914 159.716 150.779 157.6 156.106L149.025 155.328L146 172.139L154.273 174.565C154.403 180.319 155.588 185.996 157.766 191.299L151.142 196.99L160.579 211.08L168.141 206.757C172.179 210.746 176.915 213.912 182.1 216.088L181.298 224.89ZM176.837 169.293C177.644 164.785 179.734 160.625 182.841 157.338C185.949 154.052 189.934 151.787 194.294 150.83C198.653 149.873 203.191 150.267 207.332 151.963C211.474 153.658 215.034 156.579 217.561 160.355C220.088 164.131 221.469 168.593 221.53 173.176C221.59 177.76 220.327 182.259 217.901 186.104C215.474 189.949 211.993 192.968 207.898 194.779C203.803 196.589 199.277 197.11 194.894 196.275C189.023 195.153 183.825 191.682 180.44 186.624C177.055 181.565 175.759 175.333 176.837 169.293Z" fill="#F0F0F0"/>
</g>
<defs>
<linearGradient id="paint0_linear_120_24" x1="432.502" y1="315.194" x2="333.314" y2="762.545" gradientUnits="userSpaceOnUse">
<stop stop-color="#AB00E7"/>
<stop offset="1" stop-color="#BF13FB"/>
<stop offset="1" stop-color="#DB13FB"/>
</linearGradient>
<clipPath id="clip0_120_24">
<rect width="1920" height="1080" fill="white"/>
</clipPath>
</defs>
</svg>
