<svg width="468" height="175" viewBox="0 0 468 175" fill="none" xmlns="http://www.w3.org/2000/svg">
<rect width="468" height="175" fill="white"/>
<path d="M10 13.5614H78.9537C92.5464 13.5614 103.509 15.4057 111.843 19.0941C120.244 22.7826 127.177 28.0762 132.641 34.975C138.106 41.8738 142.067 49.8996 144.526 59.0524C146.985 68.2053 148.215 77.9046 148.215 88.1503C148.215 104.202 146.371 116.668 142.682 125.547C139.062 134.359 134.007 141.77 127.518 147.78C121.03 153.723 114.062 157.685 106.617 159.665C96.4398 162.398 87.2186 163.764 78.9537 163.764H10V13.5614ZM56.4131 47.5772V129.645H67.7859C77.4852 129.645 84.384 128.587 88.4823 126.469C92.5806 124.284 95.7909 120.527 98.1132 115.199C100.436 109.803 101.597 101.094 101.597 89.0724C101.597 73.1574 99.0012 62.2628 93.81 56.3886C88.6189 50.5143 80.0125 47.5772 67.9908 47.5772H56.4131Z" fill="black"/>
<path d="M135.387 88.7651C135.387 64.2436 142.218 45.1524 155.879 31.4914C169.54 17.8305 188.562 11 212.947 11C237.947 11 257.209 17.728 270.733 31.1841C284.258 44.5718 291.02 63.3557 291.02 87.5356C291.02 105.09 288.049 119.502 282.106 130.773C276.232 141.975 267.694 150.718 256.492 157.002C245.358 163.217 231.458 166.325 214.792 166.325C197.852 166.325 183.815 163.627 172.682 158.231C161.616 152.835 152.634 144.297 145.735 132.617C138.837 120.937 135.387 106.319 135.387 88.7651ZM181.8 88.97C181.8 104.134 184.601 115.028 190.202 121.654C195.871 128.279 203.555 131.592 213.255 131.592C223.227 131.592 230.946 128.348 236.41 121.859C241.874 115.37 244.607 103.724 244.607 86.9208C244.607 72.7817 241.738 62.4677 236 55.9787C230.331 49.4215 222.612 46.1428 212.845 46.1428C203.487 46.1428 195.974 49.4556 190.304 56.0812C184.635 62.7068 181.8 73.6697 181.8 88.97Z" fill="black"/>
<path d="M286.389 13.5614H345.618V163.764H286.389V13.5614Z" fill="black"/>
<path d="M324.277 13.5614H458.431V50.651H412.553V163.764H374.949V50.651H324.277V13.5614Z" fill="black"/>
<path d="M245.103 75.2652C245.399 75.7152 246.87 75.6413 246.87 75.6413C247.261 75.8843 248.206 75.6438 248.63 75.6413H267.693C267.693 75.6413 267.693 80.8322 267.693 82.761V160.084C267.693 162.669 269.108 164.764 270.854 164.764H303.365H306.527L306.527 82.761C306.527 80.8322 306.527 75.6413 306.527 75.6413H326.737C326.737 75.6413 328.601 75.6413 328.62 74.1371C328.629 73.4971 328.785 73.4024 328.62 72.8103C328.456 72.2183 328.211 71.6824 327.901 71.2359L289.398 14.2391C288.813 13.3583 288.015 12.8561 287.18 12.842C286.759 12.8397 286.342 12.9621 285.953 13.202C285.564 13.4419 285.211 13.7945 284.916 14.2391L245.81 71.2359C244.559 73.039 243.885 73.4134 245.103 75.2652Z" fill="white"/>
</svg>
