<svg width="449" height="196" viewBox="0 0 449 196" fill="none" xmlns="http://www.w3.org/2000/svg">
<path d="M0 2.56143H68.9537C82.5464 2.56143 93.5093 4.40566 101.843 8.09412C110.244 11.7826 117.177 17.0762 122.641 23.975C128.106 30.8738 132.067 38.8996 134.526 48.0524C136.985 57.2053 138.215 66.9046 138.215 77.1503C138.215 93.202 136.371 105.668 132.682 114.547C129.062 123.359 124.007 130.77 117.518 136.78C111.03 142.723 104.062 146.685 96.6172 148.665C86.4398 151.398 77.2186 152.764 68.9537 152.764H0V2.56143ZM46.4131 36.5772V118.645H57.7859C67.4852 118.645 74.384 117.587 78.4823 115.469C82.5806 113.284 85.7909 109.527 88.1132 104.199C90.4356 98.8029 91.5968 90.0941 91.5968 78.0724C91.5968 62.1574 89.0012 51.2628 83.81 45.3886C78.6189 39.5143 70.0125 36.5772 57.9908 36.5772H46.4131Z" fill="url(#paint0_linear_326_20)"/>
<path d="M125.387 77.7651C125.387 53.2436 132.218 34.1524 145.879 20.4914C159.54 6.83048 178.562 0 202.947 0C227.947 0 247.209 6.72803 260.733 20.1841C274.258 33.5718 281.02 52.3557 281.02 76.5356C281.02 94.0899 278.048 108.502 272.106 119.773C266.232 130.975 257.694 139.718 246.492 146.002C235.358 152.217 221.458 155.325 204.792 155.325C187.852 155.325 173.815 152.627 162.682 147.231C151.616 141.835 142.634 133.297 135.735 121.617C128.837 109.937 125.387 95.3194 125.387 77.7651ZM171.8 77.97C171.8 93.1336 174.601 104.028 180.202 110.654C185.871 117.279 193.555 120.592 203.255 120.592C213.227 120.592 220.946 117.348 226.41 110.859C231.874 104.37 234.607 92.7238 234.607 75.9208C234.607 61.7817 231.738 51.4677 226 44.9787C220.331 38.4215 212.612 35.1428 202.845 35.1428C193.487 35.1428 185.974 38.4556 180.304 45.0812C174.635 51.7068 171.8 62.6697 171.8 77.97Z" fill="url(#paint1_linear_326_20)"/>
<path d="M276.389 2.56143H335.618V152.764H276.389V2.56143Z" fill="url(#paint2_linear_326_20)"/>
<path d="M314.277 2.56143H448.431V39.651H402.553V152.764H364.949V39.651H314.277V2.56143Z" fill="url(#paint3_linear_326_20)"/>
<path d="M235.103 63.2652C235.399 63.7152 236.87 63.6413 236.87 63.6413C237.261 63.8843 238.206 63.6438 238.63 63.6413H257.693C257.693 63.6413 257.693 68.8322 257.693 70.761V148.084C257.693 150.669 259.108 152.764 260.854 152.764H293.365H296.527L296.527 70.761C296.527 68.8322 296.527 63.6413 296.527 63.6413H316.737C316.737 63.6413 318.601 63.6413 318.62 62.1371C318.629 61.4971 318.785 61.4024 318.62 60.8103C318.456 60.2183 318.211 59.6824 317.901 59.2359L279.398 2.23909C278.813 1.35828 278.015 0.856064 277.18 0.841995C276.759 0.839691 276.342 0.962097 275.953 1.20203C275.564 1.44194 275.211 1.79454 274.916 2.23909L235.81 59.2359C234.559 61.039 233.885 61.4134 235.103 63.2652Z" fill="#F5F5F5"/>
<path d="M14.4993 193.117C18.1227 193.117 20.8463 191.324 22.6702 187.737L25.5346 189.169C24.4696 191.397 22.9701 193.093 21.036 194.256C19.1142 195.418 16.8802 196 14.3341 196C11.7145 196 9.46217 195.455 7.57705 194.366C5.69193 193.276 4.24137 191.728 3.22537 189.72C2.22161 187.701 1.71973 185.32 1.71973 182.578C1.71973 179.823 2.22161 177.461 3.22537 175.49C4.22913 173.519 5.67357 172.008 7.55869 170.955C9.4438 169.902 11.6962 169.376 14.3157 169.376C17.07 169.376 19.3713 169.914 21.2197 170.992C23.0681 172.069 24.4268 173.666 25.2959 175.784L21.9725 176.886C21.3727 175.38 20.4056 174.229 19.0714 173.434C17.7493 172.638 16.1764 172.24 14.3524 172.24C11.4881 172.24 9.26019 173.164 7.66886 175.013C6.07753 176.849 5.28186 179.371 5.28186 182.578C5.28186 184.683 5.65521 186.532 6.40191 188.123C7.16086 189.702 8.22582 190.932 9.59682 191.814C10.9801 192.683 12.6142 193.117 14.4993 193.117Z" fill="url(#paint4_linear_326_20)"/>
<path d="M106.858 192.768V195.633H86.4765V169.761H106.105V172.626H89.9835V180.925H105.003V183.753H89.9835V192.768H106.858Z" fill="url(#paint5_linear_326_20)"/>
<path d="M171.086 178.446V195.633H167.965V169.761H172.041L186.033 191.942C185.886 189.531 185.812 187.792 185.812 186.727V169.761H188.97V195.633H184.747L170.903 173.599C170.927 174.407 170.964 175.215 171.013 176.023C171.062 176.831 171.086 177.638 171.086 178.446Z" fill="url(#paint6_linear_326_20)"/>
<path d="M261.682 172.626V195.633H258.193V172.626H249.306V169.761H270.569V172.626H261.682Z" fill="url(#paint7_linear_326_20)"/>
<path d="M351.323 192.768V195.633H330.942V169.761H350.57V172.626H334.449V180.925H349.468V183.753H334.449V192.768H351.323Z" fill="url(#paint8_linear_326_20)"/>
<path d="M415.937 184.891V195.633H412.43V169.761H424.604C427.517 169.761 429.763 170.416 431.342 171.726C432.934 173.024 433.729 174.835 433.729 177.161C433.729 179.083 433.166 180.699 432.04 182.008C430.926 183.318 429.384 184.145 427.413 184.487L434.758 195.633H430.718L423.998 184.891H415.937ZM430.204 177.198C430.204 175.692 429.69 174.548 428.662 173.764C427.646 172.968 426.177 172.571 424.255 172.571H415.937V182.119H424.402C426.25 182.119 427.676 181.69 428.68 180.833C429.696 179.964 430.204 178.752 430.204 177.198Z" fill="url(#paint9_linear_326_20)"/>
<defs>
<linearGradient id="paint0_linear_326_20" x1="224.215" y1="0" x2="224.215" y2="155.325" gradientUnits="userSpaceOnUse">
<stop stop-color="#F7BB19"/>
<stop offset="1" stop-color="#EDAD00"/>
</linearGradient>
<linearGradient id="paint1_linear_326_20" x1="224.215" y1="0" x2="224.215" y2="155.325" gradientUnits="userSpaceOnUse">
<stop stop-color="#F7BB19"/>
<stop offset="1" stop-color="#EDAD00"/>
</linearGradient>
<linearGradient id="paint2_linear_326_20" x1="224.215" y1="0" x2="224.215" y2="155.325" gradientUnits="userSpaceOnUse">
<stop stop-color="#F7BB19"/>
<stop offset="1" stop-color="#EDAD00"/>
</linearGradient>
<linearGradient id="paint3_linear_326_20" x1="224.215" y1="0" x2="224.215" y2="155.325" gradientUnits="userSpaceOnUse">
<stop stop-color="#F7BB19"/>
<stop offset="1" stop-color="#EDAD00"/>
</linearGradient>
<linearGradient id="paint4_linear_326_20" x1="218.239" y1="169.376" x2="218.239" y2="196" gradientUnits="userSpaceOnUse">
<stop stop-color="#F7BB19"/>
<stop offset="1" stop-color="#EDAD00"/>
</linearGradient>
<linearGradient id="paint5_linear_326_20" x1="218.239" y1="169.376" x2="218.239" y2="196" gradientUnits="userSpaceOnUse">
<stop stop-color="#F7BB19"/>
<stop offset="1" stop-color="#EDAD00"/>
</linearGradient>
<linearGradient id="paint6_linear_326_20" x1="218.239" y1="169.376" x2="218.239" y2="196" gradientUnits="userSpaceOnUse">
<stop stop-color="#F7BB19"/>
<stop offset="1" stop-color="#EDAD00"/>
</linearGradient>
<linearGradient id="paint7_linear_326_20" x1="218.239" y1="169.376" x2="218.239" y2="196" gradientUnits="userSpaceOnUse">
<stop stop-color="#F7BB19"/>
<stop offset="1" stop-color="#EDAD00"/>
</linearGradient>
<linearGradient id="paint8_linear_326_20" x1="218.239" y1="169.376" x2="218.239" y2="196" gradientUnits="userSpaceOnUse">
<stop stop-color="#F7BB19"/>
<stop offset="1" stop-color="#EDAD00"/>
</linearGradient>
<linearGradient id="paint9_linear_326_20" x1="218.239" y1="169.376" x2="218.239" y2="196" gradientUnits="userSpaceOnUse">
<stop stop-color="#F7BB19"/>
<stop offset="1" stop-color="#EDAD00"/>
</linearGradient>
</defs>
</svg>
